<svg width="28" height="28" viewBox="0 0 28 28" fill="none" xmlns="http://www.w3.org/2000/svg">
<path d="M13.825 7.34172C14.2806 7.79736 14.2806 8.53603 13.825 8.99166L9.98302 12.8334H21.1667C21.811 12.8334 22.3333 13.3556 22.3333 14C22.3333 14.6443 21.811 15.1667 21.1667 15.1667H9.98302L13.825 19.0084C14.2806 19.464 14.2806 20.2027 13.825 20.6583C13.3694 21.1139 12.6307 21.1139 12.175 20.6583L6.3417 14.825L6.25633 14.7297C6.25361 14.7263 6.25089 14.723 6.24824 14.7196L6.3417 14.825C6.30043 14.7837 6.26286 14.7401 6.22909 14.6945C6.20824 14.6664 6.18867 14.6373 6.17042 14.6075C6.16173 14.5934 6.15345 14.5791 6.14547 14.5647C6.13279 14.5417 6.12064 14.5179 6.10929 14.4936C6.09998 14.4738 6.09122 14.4536 6.08313 14.4332C6.07388 14.4101 6.06549 14.3871 6.05782 14.3637C6.0522 14.3463 6.04682 14.3284 6.04181 14.3103C6.0348 14.2852 6.02876 14.2599 6.02356 14.2343C6.01951 14.2139 6.01589 14.1936 6.01287 14.1733C6.00942 14.151 6.00671 14.128 6.00465 14.1048C6.00224 14.077 6.00072 14.0498 6.00024 14.0226C6.00006 14.015 6 14.0076 6 14L6.00024 13.9786C6.00072 13.951 6.00217 13.9234 6.00465 13.8959L6 14C6 13.941 6.00441 13.8829 6.01287 13.8262C6.01589 13.8064 6.01951 13.7861 6.02362 13.7658C6.02876 13.7402 6.0348 13.7149 6.04168 13.6899C6.04682 13.6717 6.0522 13.6537 6.05806 13.6358C6.06549 13.6129 6.07388 13.5898 6.08295 13.5671C6.09122 13.5464 6.09998 13.5262 6.10929 13.5063C6.12064 13.4821 6.13279 13.4583 6.14572 13.435C6.15345 13.4209 6.16173 13.4066 6.1703 13.3925C6.18867 13.3627 6.20824 13.3337 6.22903 13.3057C6.23537 13.297 6.24183 13.2885 6.24842 13.2801C6.27729 13.2435 6.30853 13.2083 6.3417 13.1751L12.175 7.34172C12.6307 6.88609 13.3694 6.88609 13.825 7.34172Z" fill="black"/>
</svg>
