<svg width="28" height="28" viewBox="0 0 28 28" fill="none" xmlns="http://www.w3.org/2000/svg">
<path fill-rule="evenodd" clip-rule="evenodd" d="M2.53683 13.4989C2.53683 7.83902 7.82585 3.5 14.0184 3.5C20.211 3.5 25.5 7.83902 25.5 13.4989C25.5 19.1589 20.211 23.4979 14.0184 23.4979C12.6453 23.4979 11.3254 23.288 10.1004 22.9013C8.65558 24.2498 6.55627 24.898 3.98825 24.9989C2.94215 25.04 2.18709 23.9519 2.62512 22.978C3.24652 21.5866 4.04942 19.9915 4.14463 18.6002C3.1278 17.1195 2.53683 15.3721 2.53683 13.4989ZM14.0184 5.5C8.63335 5.5 4.53683 9.21891 4.53683 13.4989C4.53683 15.0359 5.05147 16.4778 5.95869 17.6996C6.08671 17.872 6.15584 18.081 6.15584 18.2957C6.15584 19.9295 5.50457 21.471 4.84141 22.9339C6.89748 22.7155 8.24632 22.0571 9.05967 21.1C9.33283 20.7786 9.77835 20.6631 10.1733 20.8114C11.3455 21.2516 12.6458 21.4979 14.0184 21.4979C19.4035 21.4979 23.5 17.779 23.5 13.4989C23.5 9.21891 19.4035 5.5 14.0184 5.5Z" fill="#8E8E93"/>
</svg>
