<svg width="28" height="28" viewBox="0 0 28 28" fill="none" xmlns="http://www.w3.org/2000/svg">
<path d="M15.07 2.04074C15.4975 2.10915 15.9019 2.27274 16.2651 2.56326C16.86 3.03918 17.1433 3.63909 17.3622 4.51493C17.4183 4.73914 17.5153 5.00052 17.6365 5.25421C17.9146 5.37243 18.1866 5.50383 18.4518 5.6479C18.7136 5.58323 18.965 5.49734 19.1657 5.40389C20.5779 4.74644 21.7627 4.78098 22.7329 5.82744C22.8149 5.91595 22.8639 5.97458 22.9705 6.10623L23.5999 6.88337C23.7691 7.09238 23.8414 7.18761 23.9482 7.3653C24.64 8.51673 24.3703 9.58909 23.4958 10.7511C23.3507 10.9439 23.2025 11.1963 23.0786 11.4618C23.1568 11.7444 23.2219 12.0309 23.2736 12.3206C23.4964 12.499 23.7332 12.6554 23.9423 12.7621C24.7464 13.1725 25.2672 13.5835 25.5971 14.2702C25.7985 14.6894 25.8669 15.1202 25.8374 15.5522C25.8218 15.7805 25.7971 15.9078 25.7313 16.1928L25.5064 17.1672C25.4406 17.4521 25.407 17.5773 25.3209 17.7894C25.1581 18.1906 24.9077 18.5479 24.5429 18.8364C23.9454 19.3089 23.2971 19.45 22.3945 19.4663C22.1662 19.4705 21.8933 19.5054 21.6219 19.5652C21.4454 19.809 21.2575 20.0443 21.0588 20.2704C21.0622 20.5446 21.0895 20.814 21.1361 21.0344C21.3233 21.9176 21.3317 22.581 21.0056 23.2695C20.8066 23.6898 20.5148 24.0141 20.1605 24.2631C19.9732 24.3946 19.8588 24.4555 19.5959 24.5837L18.6971 25.0221C18.4342 25.1503 18.3158 25.203 18.0968 25.2696C17.6826 25.3955 17.2473 25.4258 16.7936 25.3238C16.0503 25.1569 15.5327 24.7419 14.9519 24.0506C14.7984 23.8679 14.5887 23.6691 14.3606 23.49C14.2148 23.4967 14.0685 23.5 13.922 23.5C13.7754 23.5 13.6291 23.4967 13.4833 23.49C13.2553 23.6691 13.0455 23.8679 12.892 24.0506C12.3112 24.7419 11.7936 25.1569 11.0503 25.3238C10.5966 25.4258 10.1614 25.3955 9.74709 25.2696C9.52813 25.203 9.40968 25.1503 9.1468 25.0221L8.24801 24.5837C8.16899 24.5453 8.11997 24.521 8.06271 24.4912C6.75116 23.8082 6.36667 22.6441 6.70777 21.0344C6.75446 20.814 6.78172 20.5446 6.78513 20.2704C6.58643 20.0443 6.3985 19.809 6.22203 19.5652C5.95061 19.5054 5.67776 19.4705 5.44942 19.4663C4.54678 19.45 3.89851 19.3089 3.30097 18.8364C2.93621 18.5479 2.68583 18.1906 2.523 17.7894C2.43693 17.5773 2.40332 17.4521 2.33753 17.1672L2.11258 16.1928C2.04292 15.8911 2.01726 15.7565 2.00405 15.512C1.97928 15.0537 2.06698 14.5984 2.29961 14.1664C2.63856 13.537 3.14026 13.1507 3.90163 12.7621C4.11075 12.6554 4.34752 12.499 4.57028 12.3206C4.62203 12.0309 4.68715 11.7444 4.76533 11.4618C4.64139 11.1963 4.49324 10.9439 4.34815 10.7511C3.47366 9.58909 3.20389 8.51673 3.89574 7.3653C4.00251 7.18761 4.07481 7.09238 4.24406 6.88337L4.87338 6.10623C4.97999 5.97458 5.02898 5.91595 5.11105 5.82744C6.08125 4.78098 7.26599 4.74644 8.67823 5.40389C8.87897 5.49734 9.13034 5.58323 9.3921 5.6479C9.65728 5.50383 9.92934 5.37243 10.2074 5.25421C10.3286 5.00052 10.4256 4.73914 10.4817 4.51493C10.7006 3.63909 10.9839 3.03918 11.5788 2.56326C11.942 2.27274 12.3464 2.10915 12.7739 2.04074C12.9547 2.01182 13.0738 2.0031 13.264 2.00077L14.422 2C14.7144 2 14.844 2.00459 15.07 2.04074ZM14.5077 4.0002L13.422 4C12.922 4 12.672 4 12.422 5C12.2832 5.55507 11.9904 6.26419 11.5863 6.87084C10.9437 7.08124 10.3393 7.37609 9.78634 7.74228C9.06958 7.67166 8.34626 7.45545 7.83414 7.21704C6.89967 6.78201 6.74234 6.97629 6.42768 7.36487L5.79835 8.14201C5.48369 8.53059 5.32636 8.72487 5.94618 9.54848C6.29504 10.012 6.66731 10.6984 6.8832 11.4045C6.66214 12.0038 6.51543 12.6392 6.45426 13.2993C5.95265 13.8335 5.3233 14.282 4.81074 14.5436C3.89261 15.0121 3.94884 15.2557 4.06132 15.7429L4.28627 16.7173C4.39875 17.2044 4.45498 17.448 5.48559 17.4667C6.05542 17.477 6.80855 17.6018 7.48847 17.8571C7.8338 18.4319 8.25398 18.9565 8.73552 19.4177C8.82987 20.1352 8.78203 20.8935 8.66433 21.449C8.45065 22.4574 8.67535 22.567 9.12475 22.7862L10.0235 23.2245C10.4729 23.4437 10.6976 23.5533 11.3607 22.7641C11.7325 22.3216 12.3145 21.8067 12.9512 21.4377C13.269 21.4788 13.593 21.5 13.922 21.5C14.2509 21.5 14.5749 21.4788 14.8927 21.4377C15.5294 21.8067 16.1114 22.3216 16.4832 22.7641C17.1463 23.5533 17.371 23.4437 17.8204 23.2245L18.7192 22.7862C19.1686 22.567 19.3933 22.4574 19.1796 21.449C19.0619 20.8935 19.014 20.1352 19.1084 19.4177C19.5899 18.9565 20.0101 18.4319 20.3554 17.8571C21.0354 17.6018 21.7885 17.477 22.3583 17.4667C23.3889 17.448 23.4452 17.2044 23.5576 16.7173L23.7826 15.7429C23.8951 15.2557 23.9513 15.0121 23.0332 14.5436C22.5206 14.282 21.8913 13.8335 21.3897 13.2993C21.3285 12.6392 21.1818 12.0038 20.9607 11.4045C21.1766 10.6984 21.5489 10.012 21.8977 9.54848C22.5176 8.72487 22.3602 8.53059 22.0456 8.14201L21.4162 7.36487C21.1016 6.97629 20.9443 6.78201 20.0098 7.21704C19.4977 7.45545 18.7743 7.67166 18.0576 7.74228C17.5046 7.37609 16.9002 7.08124 16.2577 6.87084C15.8535 6.26419 15.5607 5.55507 15.422 5C15.1867 4.05882 14.9514 4.00346 14.5077 4.0002ZM13.922 9.5C16.4072 9.5 18.422 11.5147 18.422 14C18.422 16.4853 16.4072 18.5 13.922 18.5C11.4367 18.5 9.42196 16.4853 9.42196 14C9.42196 11.5147 11.4367 9.5 13.922 9.5ZM13.922 11.5C12.5412 11.5 11.422 12.6193 11.422 14C11.422 15.3807 12.5412 16.5 13.922 16.5C15.3027 16.5 16.422 15.3807 16.422 14C16.422 12.6193 15.3027 11.5 13.922 11.5Z" fill="#8E8E93"/>
</svg>
